<svg xmlns="http://www.w3.org/2000/svg" width="203.489" height="19.551" viewBox="0 0 203.489 19.551">
  <path id="Caminho_1" data-name="Caminho 1" d="M2.162,0V-18.905H9.044a8.594,8.594,0,0,1,4.865,1.16,3.731,3.731,0,0,1,1.7,3.27A3.87,3.87,0,0,1,14.574-11.8a5.437,5.437,0,0,1-2.643,1.6v.053a5.239,5.239,0,0,1,3.223,1.49,4.166,4.166,0,0,1,1.206,3.019A5.046,5.046,0,0,1,14.5-1.523,7.779,7.779,0,0,1,9.426,0ZM6.42-15.768v4.482H8.292a3.12,3.12,0,0,0,2.076-.639,2.179,2.179,0,0,0,.758-1.76q0-2.083-3.111-2.083Zm0,7.646v4.983H8.728a3.551,3.551,0,0,0,2.314-.686A2.29,2.29,0,0,0,11.878-5.7a2.137,2.137,0,0,0-.824-1.78,3.645,3.645,0,0,0-2.3-.646ZM23.73,0H19.472V-18.905H23.73ZM43.743,0H38.364L32.854-8.213a7.872,7.872,0,0,1-.5-1.042h-.066V0H28.028V-18.905h4.258v8.938h.066q.158-.369.527-1.055L38.1-18.905h5.076L36.584-9.888ZM56.887,0H45.549V-18.905h10.9v3.467H49.808v4.206h6.183v3.454H49.808v4.324h7.08Zm2.162-.725V-4.944A8.106,8.106,0,0,0,61.541-3.5a8.009,8.009,0,0,0,2.716.481,6.023,6.023,0,0,0,1.4-.145,3.289,3.289,0,0,0,1-.4,1.754,1.754,0,0,0,.6-.606,1.513,1.513,0,0,0,.2-.758,1.639,1.639,0,0,0-.316-.989,3.4,3.4,0,0,0-.864-.8,9.023,9.023,0,0,0-1.3-.712q-.751-.343-1.622-.7a8.276,8.276,0,0,1-3.3-2.254,4.922,4.922,0,0,1-1.088-3.217,5.123,5.123,0,0,1,.593-2.538,5.039,5.039,0,0,1,1.615-1.747A7.241,7.241,0,0,1,63.545-18.9a12.16,12.16,0,0,1,2.848-.323,17.128,17.128,0,0,1,2.617.178,10.292,10.292,0,0,1,2.1.547v3.942a6.358,6.358,0,0,0-1.035-.58,8.2,8.2,0,0,0-1.154-.415,8.8,8.8,0,0,0-1.18-.244,8.351,8.351,0,0,0-1.114-.079,5.81,5.81,0,0,0-1.318.138,3.382,3.382,0,0,0-1,.389,1.935,1.935,0,0,0-.633.6,1.422,1.422,0,0,0-.224.784,1.5,1.5,0,0,0,.25.85,2.873,2.873,0,0,0,.712.712,7.555,7.555,0,0,0,1.121.659q.659.323,1.49.666a16.6,16.6,0,0,1,2.037,1.009,7.241,7.241,0,0,1,1.549,1.206A4.7,4.7,0,0,1,71.6-7.323a5.427,5.427,0,0,1,.343,2.01,5.385,5.385,0,0,1-.6,2.656,4.87,4.87,0,0,1-1.628,1.74A7.06,7.06,0,0,1,67.322.04a13.829,13.829,0,0,1-2.881.29,16.018,16.018,0,0,1-2.96-.264A8.935,8.935,0,0,1,59.049-.725ZM91.415,0H87.144V-7.7H79.313V0H75.054V-18.905h4.258v7.541h7.831v-7.541h4.271Zm12.313.33A8.8,8.8,0,0,1,97.11-2.314,9.49,9.49,0,0,1,94.553-9.2a10.169,10.169,0,0,1,2.6-7.251,8.992,8.992,0,0,1,6.882-2.769,8.581,8.581,0,0,1,6.546,2.65,9.77,9.77,0,0,1,2.5,6.987A10.006,10.006,0,0,1,110.485-2.4,8.891,8.891,0,0,1,103.729.33Zm.185-15.886a4.286,4.286,0,0,0-3.56,1.681,7.008,7.008,0,0,0-1.318,4.449,6.88,6.88,0,0,0,1.318,4.443,4.224,4.224,0,0,0,3.454,1.635A4.267,4.267,0,0,0,107.3-4.937a6.8,6.8,0,0,0,1.292-4.41,7.373,7.373,0,0,0-1.252-4.575A4.083,4.083,0,0,0,103.913-15.557Zm16.559,9.044V0h-4.258V-18.905h6.671q7.146,0,7.146,6.025a5.781,5.781,0,0,1-2.05,4.608,8.122,8.122,0,0,1-5.478,1.76Zm0-9.123v5.893h1.674q3.4,0,3.4-2.979,0-2.914-3.4-2.914ZM161.789,0h-4.206V-11.312q0-1.833.158-4.047h-.105a19.916,19.916,0,0,1-.593,2.5L152.613,0h-3.48l-4.509-12.722a24.756,24.756,0,0,1-.593-2.637h-.119q.171,2.795.171,4.9V0h-3.836V-18.905h6.236L150.346-7.7a15.778,15.778,0,0,1,.672,2.7h.079a27.214,27.214,0,0,1,.751-2.729l3.863-11.18h6.078Zm20.922,0h-4.641l-1.345-4.206H170L168.671,0h-4.614l6.882-18.905h5.049ZM175.75-7.475l-2.03-6.354a8.281,8.281,0,0,1-.316-1.7H173.3a7.211,7.211,0,0,1-.33,1.648l-2.057,6.407ZM189.33,0h-4.258V-18.905h4.258Zm3.428-.725V-4.944A8.106,8.106,0,0,0,195.249-3.5a8.009,8.009,0,0,0,2.716.481,6.023,6.023,0,0,0,1.4-.145,3.289,3.289,0,0,0,1-.4,1.754,1.754,0,0,0,.6-.606,1.513,1.513,0,0,0,.2-.758,1.639,1.639,0,0,0-.316-.989,3.4,3.4,0,0,0-.864-.8,9.023,9.023,0,0,0-1.3-.712q-.751-.343-1.622-.7a8.276,8.276,0,0,1-3.3-2.254,4.922,4.922,0,0,1-1.088-3.217,5.123,5.123,0,0,1,.593-2.538,5.039,5.039,0,0,1,1.615-1.747,7.241,7.241,0,0,1,2.366-1.009,12.16,12.16,0,0,1,2.848-.323,17.128,17.128,0,0,1,2.617.178,10.292,10.292,0,0,1,2.1.547v3.942a6.358,6.358,0,0,0-1.035-.58,8.2,8.2,0,0,0-1.154-.415,8.8,8.8,0,0,0-1.18-.244,8.351,8.351,0,0,0-1.114-.079,5.81,5.81,0,0,0-1.318.138,3.382,3.382,0,0,0-1,.389,1.935,1.935,0,0,0-.633.6,1.422,1.422,0,0,0-.224.784,1.5,1.5,0,0,0,.25.85,2.873,2.873,0,0,0,.712.712,7.555,7.555,0,0,0,1.121.659q.659.323,1.49.666a16.6,16.6,0,0,1,2.037,1.009,7.241,7.241,0,0,1,1.549,1.206,4.7,4.7,0,0,1,.989,1.536,5.427,5.427,0,0,1,.343,2.01,5.385,5.385,0,0,1-.6,2.656,4.87,4.87,0,0,1-1.628,1.74A7.06,7.06,0,0,1,201.03.04a13.829,13.829,0,0,1-2.881.29,16.018,16.018,0,0,1-2.96-.264A8.935,8.935,0,0,1,192.757-.725Z" transform="translate(-2.162 19.222)" fill="#191919"/>
</svg>
