<svg xmlns="http://www.w3.org/2000/svg" width="20.498" height="15.049" viewBox="0 0 20.498 15.049">
  <path id="Caminho_2" data-name="Caminho 2" d="M9.7-11.436H4.756V-8H9.3v2.559H4.756V0H1.6V-14H9.7ZM14.824-1.162h-.039V0H11.7V-14.8h3.086V-8.5h.039a3.662,3.662,0,0,1,3.252-1.748,3.568,3.568,0,0,1,2.979,1.328A5.727,5.727,0,0,1,22.1-5.283,6.2,6.2,0,0,1,20.879-1.27,3.976,3.976,0,0,1,17.617.244,3.151,3.151,0,0,1,14.824-1.162Zm-.088-4.219v1.025a2.341,2.341,0,0,0,.557,1.6,1.811,1.811,0,0,0,1.426.635,1.892,1.892,0,0,0,1.636-.815,3.937,3.937,0,0,0,.581-2.31A3.132,3.132,0,0,0,18.4-7.183a1.8,1.8,0,0,0-1.519-.7,1.962,1.962,0,0,0-1.538.693A2.634,2.634,0,0,0,14.736-5.381Z" transform="translate(-1.602 14.805)" fill="#191919"/>
</svg>
