<svg xmlns="http://www.w3.org/2000/svg" width="26.299" height="14.004" viewBox="0 0 26.299 14.004">
  <path id="Caminho_4" data-name="Caminho 4" d="M11.436-11.436H7.441V0H4.277V-11.436H.3V-14H11.436ZM26.6-10,23.721,0H20.479L19-5.859a5.966,5.966,0,0,1-.166-1.279h-.059a7.655,7.655,0,0,1-.2,1.24L17,0H13.8L10.977-10h3.145L15.5-3.477a8.482,8.482,0,0,1,.146,1.113H15.7a6.165,6.165,0,0,1,.176-1.152L17.6-10h2.939L22.08-3.477a10.373,10.373,0,0,1,.137,1.133h.068a11.272,11.272,0,0,1,.156-1.133L23.74-10Z" transform="translate(-0.303 14.004)" fill="#191919"/>
</svg>
